Normalized EMG Linear Envelopes
nRows=59
nColumns=17

endheader
time	1_BAD	2_Glutmax_R	3_Vaslat_R	4_Recfem_R	5_Bifem_R	6_Gasmed_R	7_BAD	8_Soleus_R	9_Tibant_R	10_Glutmax_L	11_Vaslat_L	12_Recfem_L	13_Bifem_L	14_Gasmed_L	15_Soleus_L	16_Tibant_L
26.673	0.183991	0.080262	0.136727	0.548249	0.248044	0.101409	0.052465	0.077903	0.156968	0.136601	0.034874	0.056218	0.021809	0.144563	0.215892	0.061913	
26.674	0.186148	0.081004	0.143336	0.547336	0.260823	0.099941	0.051984	0.078227	0.158366	0.135773	0.034162	0.058194	0.021898	0.143278	0.215564	0.064467	
26.675	0.188677	0.081779	0.150108	0.546451	0.273903	0.098596	0.051476	0.078624	0.159835	0.134938	0.033480	0.060259	0.021988	0.142004	0.215279	0.067120	
26.676	0.191569	0.082591	0.157038	0.545601	0.287274	0.097375	0.050943	0.079094	0.161378	0.134097	0.032826	0.062412	0.022079	0.140742	0.215040	0.069869	
26.677	0.194815	0.083444	0.164121	0.544796	0.300924	0.096275	0.050386	0.079638	0.162996	0.133250	0.032201	0.064652	0.022170	0.139492	0.214852	0.072711	
26.678	0.198403	0.084342	0.171354	0.544044	0.314840	0.095295	0.049807	0.080255	0.164691	0.132398	0.031605	0.066977	0.022260	0.138253	0.214717	0.075642	
26.679	0.202320	0.085289	0.178730	0.543354	0.329007	0.094434	0.049209	0.080945	0.166463	0.131541	0.031038	0.069384	0.022350	0.137026	0.214640	0.078659	
26.680	0.206553	0.086290	0.186245	0.542735	0.343412	0.093688	0.048593	0.081707	0.168314	0.130678	0.030499	0.071871	0.022439	0.135810	0.214624	0.081758	
26.681	0.211086	0.087347	0.193893	0.542198	0.358038	0.093056	0.047962	0.082541	0.170246	0.129812	0.029988	0.074436	0.022525	0.134605	0.214674	0.084935	
26.682	0.215903	0.088466	0.201667	0.541750	0.372868	0.092533	0.047318	0.083445	0.172259	0.128941	0.029505	0.077077	0.022610	0.133410	0.214793	0.088184	
26.683	0.220986	0.089650	0.209562	0.541402	0.387883	0.092117	0.046662	0.084416	0.174355	0.128065	0.029050	0.079790	0.022692	0.132225	0.214985	0.091501	
26.684	0.226318	0.090903	0.217572	0.541162	0.403066	0.091804	0.045996	0.085454	0.176533	0.127185	0.028622	0.082573	0.022772	0.131049	0.215254	0.094880	
26.685	0.231877	0.092229	0.225689	0.541039	0.418395	0.091589	0.045324	0.086555	0.178795	0.126301	0.028220	0.085423	0.022848	0.129882	0.215605	0.098318	
26.686	0.237645	0.093632	0.233906	0.541043	0.433851	0.091469	0.044646	0.087717	0.181141	0.125413	0.027844	0.088336	0.022921	0.128722	0.216041	0.101807	
26.687	0.243600	0.095115	0.242217	0.541180	0.449412	0.091438	0.043964	0.088936	0.183571	0.124521	0.027494	0.091310	0.022990	0.127569	0.216566	0.105342	
26.688	0.249719	0.096682	0.250615	0.541459	0.465054	0.091492	0.043282	0.090210	0.186086	0.123625	0.027169	0.094339	0.023056	0.126423	0.217184	0.108917	
26.689	0.255980	0.098335	0.259091	0.541888	0.480756	0.091626	0.042600	0.091534	0.188686	0.122724	0.026868	0.097421	0.023117	0.125281	0.217899	0.112525	
26.690	0.262361	0.100079	0.267640	0.542473	0.496491	0.091833	0.041920	0.092905	0.191370	0.121819	0.026591	0.100552	0.023174	0.124144	0.218714	0.116161	
26.691	0.268836	0.101917	0.276252	0.543222	0.512237	0.092109	0.041244	0.094317	0.194140	0.120910	0.026337	0.103726	0.023226	0.123010	0.219632	0.119818	
26.692	0.275383	0.103850	0.284920	0.544138	0.527967	0.092446	0.040575	0.095767	0.196994	0.119997	0.026106	0.106940	0.023274	0.121878	0.220657	0.123489	
26.693	0.281976	0.105883	0.293638	0.545228	0.543655	0.092840	0.039912	0.097250	0.199932	0.119079	0.025897	0.110188	0.023318	0.120748	0.221792	0.127167	
26.694	0.288592	0.108016	0.302397	0.546496	0.559275	0.093283	0.039260	0.098760	0.202955	0.118156	0.025710	0.113466	0.023357	0.119618	0.223039	0.130846	
26.695	0.295205	0.110253	0.311189	0.547946	0.574799	0.093769	0.038618	0.100292	0.206062	0.117230	0.025542	0.116769	0.023391	0.118489	0.224401	0.134519	
26.696	0.301791	0.112595	0.320008	0.549579	0.590200	0.094292	0.037988	0.101841	0.209252	0.116299	0.025395	0.120091	0.023420	0.117357	0.225880	0.138178	
26.697	0.308325	0.115045	0.328845	0.551398	0.605450	0.094844	0.037371	0.103401	0.212525	0.115363	0.025267	0.123426	0.023445	0.116225	0.227478	0.141817	
26.698	0.314785	0.117603	0.337694	0.553405	0.620522	0.095420	0.036770	0.104966	0.215882	0.114424	0.025157	0.126769	0.023465	0.115089	0.229196	0.145429	
26.699	0.321145	0.120271	0.346546	0.555598	0.635386	0.096012	0.036185	0.106531	0.219321	0.113479	0.025065	0.130114	0.023481	0.113950	0.231035	0.149007	
26.700	0.327382	0.123050	0.355396	0.557977	0.650014	0.096613	0.035617	0.108088	0.222842	0.112531	0.024990	0.133454	0.023492	0.112806	0.232997	0.152543	
26.701	0.333475	0.125941	0.364235	0.560541	0.664378	0.097216	0.035068	0.109633	0.226446	0.111579	0.024932	0.136782	0.023499	0.111659	0.235080	0.156031	
26.702	0.339400	0.128944	0.373058	0.563286	0.678449	0.097816	0.034538	0.111159	0.230131	0.110622	0.024888	0.140093	0.023502	0.110506	0.237286	0.159465	
26.703	0.345138	0.132060	0.381858	0.566210	0.692199	0.098404	0.034028	0.112661	0.233899	0.109661	0.024860	0.143379	0.023500	0.109348	0.239613	0.162837	
26.704	0.350668	0.135287	0.390629	0.569307	0.705600	0.098976	0.033539	0.114131	0.237750	0.108697	0.024845	0.146633	0.023495	0.108184	0.242060	0.166141	
26.705	0.355970	0.138627	0.399365	0.572573	0.718625	0.099523	0.033073	0.115565	0.241682	0.107729	0.024843	0.149849	0.023486	0.107015	0.244625	0.169371	
26.706	0.361027	0.142078	0.408060	0.576002	0.731245	0.100041	0.032629	0.116957	0.245698	0.106757	0.024854	0.153019	0.023474	0.105839	0.247306	0.172520	
26.707	0.365822	0.145639	0.416709	0.579585	0.743435	0.100522	0.032208	0.118301	0.249796	0.105783	0.024877	0.156136	0.023458	0.104658	0.250101	0.175583	
26.708	0.370339	0.149309	0.425308	0.583315	0.755167	0.100962	0.031811	0.119591	0.253979	0.104805	0.024911	0.159192	0.023440	0.103472	0.253005	0.178554	
26.709	0.374564	0.153088	0.433852	0.587184	0.766416	0.101355	0.031438	0.120824	0.258246	0.103825	0.024955	0.162180	0.023418	0.102281	0.256016	0.181427	
26.710	0.378484	0.156972	0.442337	0.591181	0.777157	0.101696	0.031090	0.121994	0.262599	0.102843	0.025008	0.165092	0.023394	0.101085	0.259128	0.184198	
26.711	0.382087	0.160960	0.450759	0.595297	0.787367	0.101979	0.030768	0.123096	0.267038	0.101859	0.025070	0.167921	0.023367	0.099885	0.262337	0.186860	
26.712	0.385363	0.165050	0.459116	0.599521	0.797021	0.102202	0.030470	0.124127	0.271565	0.100875	0.025140	0.170659	0.023339	0.098682	0.265638	0.189410	
26.713	0.388304	0.169239	0.467404	0.603840	0.806098	0.102359	0.030199	0.125083	0.276180	0.099889	0.025218	0.173299	0.023308	0.097476	0.269023	0.191843	
26.714	0.390903	0.173525	0.475622	0.608243	0.814577	0.102447	0.029954	0.125960	0.280886	0.098903	0.025302	0.175834	0.023276	0.096269	0.272487	0.194155	
26.715	0.393154	0.177904	0.483767	0.612716	0.822439	0.102463	0.029735	0.126757	0.285683	0.097918	0.025392	0.178256	0.023242	0.095062	0.276023	0.196343	
26.716	0.395054	0.182374	0.491838	0.617246	0.829665	0.102404	0.029542	0.127471	0.290573	0.096934	0.025487	0.180558	0.023207	0.093856	0.279623	0.198402	
26.717	0.396601	0.186930	0.499834	0.621820	0.836237	0.102268	0.029376	0.128099	0.295557	0.095952	0.025588	0.182733	0.023172	0.092652	0.283278	0.200330	
26.718	0.397793	0.191570	0.507755	0.626423	0.842141	0.102054	0.029237	0.128643	0.300636	0.094973	0.025692	0.184775	0.023136	0.091451	0.286981	0.202124	
26.719	0.398633	0.196289	0.515599	0.631040	0.847362	0.101760	0.029125	0.129099	0.305813	0.093997	0.025800	0.186676	0.023099	0.090256	0.290722	0.203782	
26.720	0.399122	0.201083	0.523368	0.635656	0.851888	0.101386	0.029040	0.129471	0.311088	0.093026	0.025910	0.188432	0.023063	0.089068	0.294492	0.205301	
26.721	0.399264	0.205949	0.531062	0.640256	0.855708	0.100931	0.028982	0.129757	0.316463	0.092060	0.026023	0.190034	0.023027	0.087888	0.298281	0.206680	
26.722	0.399066	0.210881	0.538681	0.644824	0.858813	0.100397	0.028952	0.129959	0.321939	0.091100	0.026138	0.191479	0.022991	0.086718	0.302079	0.207918	
26.723	0.398536	0.215876	0.546227	0.649345	0.861195	0.099784	0.028950	0.130081	0.327516	0.090147	0.026255	0.192760	0.022956	0.085561	0.305876	0.209013	
26.724	0.397681	0.220928	0.553700	0.653804	0.862849	0.099093	0.028975	0.130125	0.333195	0.089203	0.026372	0.193873	0.022923	0.084417	0.309661	0.209965	
26.725	0.396512	0.226032	0.561102	0.658184	0.863770	0.098328	0.029028	0.130094	0.338978	0.088267	0.026489	0.194813	0.022891	0.083289	0.313423	0.210773	
26.726	0.395041	0.231184	0.568434	0.662470	0.863956	0.097490	0.029110	0.129995	0.344863	0.087343	0.026607	0.195577	0.022860	0.082179	0.317152	0.211438	
26.727	0.393282	0.236379	0.575698	0.666646	0.863408	0.096584	0.029220	0.129832	0.350851	0.086430	0.026725	0.196160	0.022832	0.081089	0.320835	0.211959	
26.728	0.391248	0.241611	0.582895	0.670698	0.862126	0.095612	0.029359	0.129611	0.356940	0.085530	0.026841	0.196559	0.022806	0.080020	0.324462	0.212337	
26.729	0.388955	0.246874	0.590026	0.674610	0.860114	0.094580	0.029527	0.129339	0.363131	0.084643	0.026957	0.196772	0.022783	0.078975	0.328021	0.212572	
26.730	0.386419	0.252164	0.597093	0.678367	0.857377	0.093492	0.029724	0.129025	0.369422	0.083772	0.027072	0.196797	0.022763	0.077956	0.331501	0.212667	
26.731	0.383660	0.257474	0.604096	0.681956	0.853921	0.092355	0.029952	0.128678	0.375810	0.082917	0.027185	0.196632	0.022746	0.076964	0.334890	0.212621	
